<svg width="48" height="48" viewBox="0 0 48 48" fill="none" xmlns="http://www.w3.org/2000/svg">
<path d="M0 16.1C0 10.4051 0 7.55764 1.12587 5.39026C2.07462 3.56382 3.56382 2.07462 5.39026 1.12587C7.55764 0 10.4051 0 16.1 0H31.9C37.5949 0 40.4424 0 42.6097 1.12587C44.4362 2.07462 45.9254 3.56382 46.8741 5.39026C48 7.55764 48 10.4051 48 16.1V31.9C48 37.5949 48 40.4424 46.8741 42.6097C45.9254 44.4362 44.4362 45.9254 42.6097 46.8741C40.4424 48 37.5949 48 31.9 48H16.1C10.4051 48 7.55764 48 5.39026 46.8741C3.56382 45.9254 2.07462 44.4362 1.12587 42.6097C0 40.4424 0 37.5949 0 31.9V16.1Z" fill="#1265BF"/>
<path d="M10.7738 14.9061C13.0735 14.9061 14.9378 13.0418 14.9378 10.7421C14.9378 8.44241 13.0735 6.57812 10.7738 6.57812C8.47408 6.57812 6.6098 8.44241 6.6098 10.7421C6.6098 13.0418 8.47408 14.9061 10.7738 14.9061Z" fill="white"/>
<path d="M18.7513 17.9834H25.6524V21.1448C25.6524 21.1448 27.5251 17.3994 32.6204 17.3994C37.1657 17.3994 40.9309 19.6385 40.9309 26.4635V40.8555H33.7795V28.2074C33.7795 24.1814 31.63 23.7385 29.9921 23.7385C26.5929 23.7385 26.011 26.6705 26.011 28.7326V40.8555H18.7513V17.9834Z" fill="white"/>
<path d="M7.14394 17.9834H14.4037V40.8555H7.14394V17.9834Z" fill="white"/>
</svg>
