<svg width="24" height="25" viewBox="0 0 24 25" fill="none" xmlns="http://www.w3.org/2000/svg">
<path d="M19.41 13.5C19.19 13.5 18.96 13.43 18.74 13.38C18.2948 13.2805 17.8571 13.1501 17.43 12.99C16.9661 12.8212 16.4561 12.83 15.9983 13.0146C15.5405 13.1992 15.1671 13.5466 14.95 13.99L14.73 14.45C13.7588 13.8992 12.8616 13.2271 12.06 12.45C11.2828 11.6484 10.6108 10.7512 10.06 9.78L10.52 9.57C10.9634 9.35292 11.3108 8.97953 11.4954 8.52169C11.68 8.06385 11.6888 7.55391 11.52 7.09C11.3612 6.65903 11.2309 6.21808 11.13 5.77C11.08 5.55 11.04 5.32 11.01 5.1C10.8886 4.39562 10.5196 3.75774 9.96961 3.30124C9.41961 2.84474 8.72469 2.59961 8.00999 2.61H4.99999C4.57724 2.60945 4.15914 2.69825 3.77311 2.87058C3.38707 3.04292 3.04182 3.2949 2.75999 3.61C2.47231 3.93365 2.2581 4.31575 2.13209 4.73004C2.00608 5.14432 1.97125 5.58098 2.02999 6.01C2.57358 10.1721 4.4752 14.0387 7.43999 17.01C10.4113 19.9748 14.2779 21.8764 18.44 22.42C18.5698 22.4299 18.7002 22.4299 18.83 22.42C19.5674 22.4211 20.2794 22.1505 20.83 21.66C21.1451 21.3782 21.3971 21.0329 21.5694 20.6469C21.7417 20.2609 21.8305 19.8428 21.83 19.42V16.42C21.8246 15.729 21.5808 15.0611 21.1399 14.5291C20.699 13.9971 20.0879 13.6336 19.41 13.5ZM19.9 19.5C19.8997 19.6395 19.8701 19.7775 19.8133 19.9049C19.7565 20.0324 19.6736 20.1465 19.57 20.24C19.4604 20.3399 19.33 20.4141 19.1881 20.4573C19.0463 20.5006 18.8967 20.5117 18.75 20.49C15.0183 20.0026 11.5502 18.302 8.87999 15.65C6.20746 12.9775 4.49202 9.49737 3.99999 5.75C3.97826 5.60333 3.98943 5.45367 4.03266 5.31185C4.0759 5.17003 4.15014 5.0396 4.24999 4.93C4.34461 4.82515 4.46037 4.74154 4.58964 4.68466C4.71891 4.62778 4.85876 4.59892 4.99999 4.6H7.99999C8.23115 4.59435 8.45713 4.66898 8.63945 4.8112C8.82178 4.95341 8.94919 5.15442 8.99999 5.38C8.99999 5.65 9.08999 5.93 9.14999 6.2C9.26556 6.72386 9.41931 7.23857 9.60999 7.74L8.20999 8.4C7.96935 8.51046 7.78235 8.71185 7.68999 8.96C7.58997 9.20346 7.58997 9.47654 7.68999 9.72C9.12919 12.8028 11.6072 15.2808 14.69 16.72C14.9334 16.82 15.2065 16.82 15.45 16.72C15.6981 16.6276 15.8995 16.4406 16.01 16.2L16.64 14.8C17.1559 14.9881 17.6837 15.1418 18.22 15.26C18.48 15.32 18.76 15.37 19.03 15.41C19.2556 15.4608 19.4566 15.5882 19.5988 15.7705C19.741 15.9529 19.8156 16.1788 19.81 16.41L19.9 19.5ZM14 2.5C13.77 2.5 13.53 2.5 13.3 2.5C13.0348 2.52254 12.7894 2.64952 12.6178 2.853C12.4462 3.05647 12.3624 3.31978 12.385 3.585C12.4075 3.85022 12.5345 4.09562 12.738 4.26721C12.9415 4.43881 13.2048 4.52254 13.47 4.5H14C15.5913 4.5 17.1174 5.13214 18.2426 6.25736C19.3678 7.38258 20 8.9087 20 10.5C20 10.68 20 10.85 20 11.03C19.9778 11.2938 20.0612 11.5556 20.2317 11.7581C20.4023 11.9606 20.6462 12.0871 20.91 12.11H20.99C21.2403 12.111 21.4819 12.0181 21.6671 11.8496C21.8522 11.6811 21.9675 11.4493 21.99 11.2C21.99 10.97 21.99 10.73 21.99 10.5C21.99 8.38 21.1485 6.34668 19.6504 4.84668C18.1523 3.34667 16.12 2.50265 14 2.5ZM16 10.5C16 10.7652 16.1053 11.0196 16.2929 11.2071C16.4804 11.3946 16.7348 11.5 17 11.5C17.2652 11.5 17.5196 11.3946 17.7071 11.2071C17.8946 11.0196 18 10.7652 18 10.5C18 9.43913 17.5786 8.42172 16.8284 7.67157C16.0783 6.92143 15.0609 6.5 14 6.5C13.7348 6.5 13.4804 6.60536 13.2929 6.79289C13.1053 6.98043 13 7.23478 13 7.5C13 7.76522 13.1053 8.01957 13.2929 8.20711C13.4804 8.39464 13.7348 8.5 14 8.5C14.5304 8.5 15.0391 8.71071 15.4142 9.08579C15.7893 9.46086 16 9.96957 16 10.5Z" fill="#741C47"/>
</svg>
