<svg width="48" height="48" viewBox="0 0 48 48" fill="none" xmlns="http://www.w3.org/2000/svg">
<path d="M0 16.1C0 10.4051 0 7.55764 1.12587 5.39026C2.07462 3.56382 3.56382 2.07462 5.39026 1.12587C7.55764 0 10.4051 0 16.1 0H31.9C37.5949 0 40.4424 0 42.6097 1.12587C44.4362 2.07462 45.9254 3.56382 46.8741 5.39026C48 7.55764 48 10.4051 48 16.1V31.9C48 37.5949 48 40.4424 46.8741 42.6097C45.9254 44.4362 44.4362 45.9254 42.6097 46.8741C40.4424 48 37.5949 48 31.9 48H16.1C10.4051 48 7.55764 48 5.39026 46.8741C3.56382 45.9254 2.07462 44.4362 1.12587 42.6097C0 40.4424 0 37.5949 0 31.9V16.1Z" fill="#1EA1F2"/>
<path fill-rule="evenodd" clip-rule="evenodd" d="M37.3229 18.1536C37.3345 18.4534 37.3384 18.7531 37.3384 19.0529C37.3384 28.1424 30.9444 38.6357 19.2519 38.6357C15.6602 38.6357 12.3205 37.4909 9.50653 35.5422C10.0039 35.5967 10.5091 35.6377 11.022 35.6377C14 35.6377 16.7429 34.5336 18.9186 32.6803C16.137 32.6394 13.7882 30.6362 12.9781 27.9107C13.367 27.9925 13.7675 28.0335 14.177 28.0335C14.7545 28.0335 15.3153 27.9518 15.8527 27.7883C12.9419 27.1614 10.7494 24.3815 10.7494 21.0428C10.7494 21.0019 10.7494 20.9882 10.7494 20.9609C11.6073 21.4652 12.5892 21.7784 13.6318 21.8193C11.9238 20.5792 10.8011 18.467 10.8011 16.0822C10.8011 14.8285 11.1137 13.6429 11.6641 12.6208C14.7985 16.7908 19.4845 19.5299 24.7674 19.8161C24.6589 19.3119 24.6033 18.7806 24.6033 18.2491C24.6033 14.4471 27.4496 11.3672 30.9612 11.3672C32.7893 11.3672 34.4405 12.1986 35.5994 13.5341C37.0503 13.2343 38.4095 12.662 39.6394 11.8716C39.1627 13.4796 38.1562 14.8284 36.841 15.6733C38.1278 15.5098 39.3552 15.1421 40.4934 14.597C39.6394 15.9734 38.5645 17.1861 37.3229 18.1536Z" fill="white"/>
</svg>
