<svg width="48" height="48" viewBox="0 0 48 48" fill="none" xmlns="http://www.w3.org/2000/svg">
<path d="M0 16.1C0 10.4051 0 7.55764 1.12587 5.39026C2.07462 3.56382 3.56382 2.07462 5.39026 1.12587C7.55764 0 10.4051 0 16.1 0H31.9C37.5949 0 40.4424 0 42.6097 1.12587C44.4362 2.07462 45.9254 3.56382 46.8741 5.39026C48 7.55764 48 10.4051 48 16.1V31.9C48 37.5949 48 40.4424 46.8741 42.6097C45.9254 44.4362 44.4362 45.9254 42.6097 46.8741C40.4424 48 37.5949 48 31.9 48H16.1C10.4051 48 7.55764 48 5.39026 46.8741C3.56382 45.9254 2.07462 44.4362 1.12587 42.6097C0 40.4424 0 37.5949 0 31.9V16.1Z" fill="url(#paint0_linear_749_19571)"/>
<path fill-rule="evenodd" clip-rule="evenodd" d="M25.3938 6.59143C29.6426 6.80024 33.6016 8.55229 36.6254 11.5781C39.8508 14.8056 41.6262 19.0957 41.6245 23.6581C41.6206 33.073 33.9561 40.7333 24.5407 40.7333H24.5336C21.6743 40.7323 18.8649 40.0154 16.3696 38.655L7.31317 41.0294L9.73689 32.181C8.24186 29.5915 7.45519 26.6541 7.45642 23.6445C7.4602 14.2299 15.124 6.57031 24.5404 6.57031L25.3938 6.59143ZM16.7892 35.5637L17.3078 35.8713C19.4879 37.1644 21.9869 37.8486 24.5348 37.8496H24.5406C32.367 37.8496 38.7368 31.4827 38.7399 23.6571C38.7414 19.8649 37.2659 16.2991 34.585 13.6166C31.904 10.9338 28.3389 9.45554 24.5463 9.45431C16.7139 9.45431 10.344 15.8205 10.3409 23.6455C10.3398 26.3273 11.0905 28.939 12.5119 31.1985L12.8495 31.7356L11.415 36.9727L16.7892 35.5637ZM33.1473 27.7186C33.0407 27.5405 32.7561 27.4338 32.3293 27.2202C31.9024 27.0066 29.8037 25.9745 29.4124 25.832C29.0212 25.6898 28.7365 25.6186 28.452 26.0456C28.1675 26.4727 27.3494 27.4338 27.1003 27.7186C26.8514 28.0033 26.6024 28.0389 26.1756 27.8253C25.7487 27.6119 24.3733 27.1612 22.7428 25.7077C21.4738 24.5763 20.6171 23.1792 20.3681 22.752C20.1191 22.325 20.3415 22.094 20.5552 21.8813C20.7473 21.6901 20.9822 21.3829 21.1956 21.1338C21.409 20.8847 21.4801 20.7067 21.6225 20.422C21.7647 20.1372 21.6936 19.8882 21.5869 19.6746C21.4801 19.4609 20.6265 17.3608 20.2708 16.5065C19.9242 15.6747 19.5723 15.7873 19.3103 15.7741C19.0616 15.7618 18.7767 15.7591 18.4922 15.7591C18.2076 15.7591 17.7451 15.8658 17.3539 16.2931C16.9626 16.7201 15.8598 17.7524 15.8598 19.8524C15.8598 21.9525 17.3894 23.9812 17.6029 24.266C17.8163 24.5508 20.6129 28.8601 24.895 30.7084C25.9134 31.148 26.7086 31.4104 27.3285 31.6071C28.3511 31.9318 29.2816 31.8861 30.0172 31.7761C30.8373 31.6537 32.5427 30.744 32.8984 29.7475C33.2541 28.7507 33.2541 27.8965 33.1473 27.7186Z" fill="white"/>
<defs>
<linearGradient id="paint0_linear_749_19571" x1="24" y1="48" x2="24" y2="0" gradientUnits="userSpaceOnUse">
<stop stop-color="#25CF43"/>
<stop offset="1" stop-color="#61FD7D"/>
</linearGradient>
</defs>
</svg>
